<?xml version="1.0" encoding="utf-8"?>
<!-- Generator: Adobe Illustrator 25.4.1, SVG Export Plug-In . SVG Version: 6.00 Build 0)  -->
<svg version="1.1" id="Calque_1" xmlns="http://www.w3.org/2000/svg" xmlns:xlink="http://www.w3.org/1999/xlink" x="0px" y="0px"
	 viewBox="0 0 190 41.33" style="enable-background:new 0 0 190 41.33;" xml:space="preserve">
<g>
	<g>
		<path d="M55.35,20.55L59.9,9.74l4.55,10.81H55.35z M67.52,27.87h4.24L62.32,5.66h-4.84l-9.45,22.21h4.24l1.8-4.27h11.66
			L67.52,27.87z M47.51,5.74l-5.45,17.79L36.83,5.74h-3.58l-5.24,17.83L22.58,5.74h-4.12l7.03,22.13h4.61l4.97-16.86l4.92,16.86
			h4.61l7.04-22.13H47.51z"/>
		<path d="M163.33,16.52c0,5.48-3.22,7.99-8.68,7.99h-5.04V9.1h5.06c5.43,0,8.65,2.18,8.65,7.4V16.52z M154.68,5.74h-9.17v22.14
			h9.15c7.9,0,13.01-3.73,13-11.35v-0.03C167.66,9.13,162.55,5.74,154.68,5.74 M142.79,9.07V5.74h-19.23v22.14h19.23v-3.33h-15.12
			v-6.78h13.68v-3.13h-13.68V9.07L142.79,9.07z"/>
		<path d="M19.53,21.82L19.53,21.82c0-0.83-0.82-1.27-2.03-1.27c-1.09,0-1.99,0.42-2.04,1.38l0,0.02h0.75l0-0.02
			c0.03-0.51,0.56-0.75,1.24-0.75c0.8,0,1.24,0.22,1.24,0.65v0.01c0,1.25-3.27,0.65-3.27,2.99v0.11h4.09V24.3h-3.19
			C16.95,23.05,19.53,23.48,19.53,21.82z M14.01,20.6c-0.25,0.39-0.59,0.57-1.32,0.57v0.61c0.51,0,0.89-0.07,1.19-0.21v3.36h0.8
			V20.6H14.01z M9.92,24.34c-0.89,0-1.35-0.58-1.35-1.61v-0.01c0-0.97,0.46-1.53,1.35-1.53c0.89,0,1.36,0.56,1.36,1.53v0.01
			C11.28,23.76,10.82,24.34,9.92,24.34 M9.92,24.98c1.43,0,2.2-0.82,2.2-2.24v-0.01c0-1.38-0.77-2.17-2.2-2.17
			c-1.42,0-2.19,0.8-2.19,2.17v0.01C7.73,24.16,8.5,24.98,9.92,24.98 M4.92,24.93h0.85v-0.79H4.92V24.93z M4.17,23.72L4.17,23.72
			c0-1.83-3.29-0.77-3.29-1.93v-0.01c0-0.39,0.44-0.62,1.22-0.62c0.76,0,1.27,0.23,1.27,0.67v0.01h0.76v-0.03
			c0-0.78-0.74-1.26-2.05-1.26c-1.22,0-2.02,0.44-2.02,1.23v0.01c0,1.86,3.29,0.79,3.29,1.94v0.01c0,0.42-0.47,0.64-1.25,0.64
			c-0.86,0-1.35-0.27-1.35-0.78v-0.01H0v0.02c0,0.81,0.68,1.38,2.11,1.38C3.38,24.98,4.17,24.5,4.17,23.72z"/>
		<path d="M190,23.75L190,23.75c0-1.85-3.47-0.7-3.47-1.98v-0.01c0-0.44,0.51-0.7,1.41-0.7c0.89,0,1.47,0.25,1.47,0.73v0.01h0.56
			v-0.03c0-0.75-0.74-1.22-2.04-1.22c-1.24,0-2.01,0.45-2.01,1.21v0.01c0,1.89,3.47,0.7,3.47,1.97v0.01c0,0.47-0.55,0.72-1.45,0.72
			c-0.97,0-1.54-0.29-1.54-0.84v-0.01h-0.56v0.02c0,0.79,0.69,1.33,2.1,1.33C189.25,24.98,190,24.47,190,23.75 M184.95,20.61h-0.59
			v4.34h0.59V20.61z M180.05,22.8v-1.67h1.47c0.74,0,1.29,0.23,1.29,0.79v0.01c0,0.61-0.55,0.87-1.29,0.87H180.05z M183.48,24.94
			l-1.06-1.75c0.64-0.2,1-0.64,1-1.26v-0.01c0-0.83-0.72-1.32-1.9-1.32h-2.05v4.34h0.59v-1.62h1.47c0.11,0,0.21,0,0.31-0.01
			l0.99,1.64H183.48z M175.44,23.52l1.06-2.36l1.05,2.36H175.44z M178.18,24.94h0.61l-1.95-4.35h-0.69l-1.95,4.35h0.61l0.4-0.9h2.58
			L178.18,24.94z M173.74,22.01c0,0.66-0.55,0.94-1.29,0.94h-1.38v-1.82h1.38C173.19,21.13,173.74,21.39,173.74,22.01L173.74,22.01z
			 M172.45,20.61h-1.97v4.34h0.59v-1.47h1.38c1.19,0,1.9-0.54,1.9-1.46V22C174.35,21.11,173.64,20.61,172.45,20.61"/>
		<path d="M116.43,29.36V7.12c2.86-0.61,3.9-1.92,5.02-4.55l-0.75-0.38c-1.03,1.03-1.97,1.41-3.43,1.41c-1.17,0-3.8-0.75-4.97-1.08
			c-2.3-0.61-4.55-1.31-6.95-1.31c-3.66,0-8.32,1.91-10,5.39c-2.58,2.01-4.56,4.23-6.19,6.67l-4.22-1.41
			c-2.58-0.84-7.18-2.25-7.18-5.63c0-2.02,1.83-3.52,3.75-3.52c3.05,0,5.21,3,6.71,5.3c2.35-1.64,4.55-3.43,6.8-5.21l-0.84-0.89
			l-2.72,2.07c-2.25-1.74-4.74-3.38-7.7-3.38c-4.08,0-7.74,3.19-7.74,7.37c0,4.46,3.99,5.91,7.6,7.09l3.99,1.27l-0.94,2.02
			l-4.32-1.31c-2.16-0.66-5.91-1.83-6.85-4.18c-0.33-0.84-0.33-1.74-0.33-2.63h-0.8c-0.52,1.13-0.94,2.16-0.94,3.38
			c0,4.22,4.69,5.58,7.98,6.66l3.8,1.22l-2.25,5.26c-0.56-0.09-1.08-0.09-1.64-0.09c-2.72,0-5.87,0.94-8.07,2.58
			c-2.21,1.64-4.27,4.79-4.27,7.56c0,1.83,1.13,3.29,3.1,3.29c4.51,0,8.68-6.62,10.14-10.09c1.97,0.75,3.57,2.07,5.58,3.71
			c4.13-2.86,8.45-7.04,8.45-12.44c0-3.99-2.58-6.48-6.29-7.74c1.45-2.27,2.76-3.65,4.82-5.09c-0.05,0.32-0.08,0.66-0.08,1
			c0,1.69,0.89,2.72,2.02,3.9l0.56-0.56c-0.94-0.94-1.55-1.78-1.55-3.14c0-3.1,3.19-5.26,6.05-5.26c3.52,0,6.57,1.08,9.81,2.3
			l-7.56,6.01l0.52,0.47l2.68-2.11v12.95c0,2.02-0.09,2.63-0.89,3.33l0.19,0.61c3.66-1.74,3.94-2.02,3.94-6.85V8.43l2.06-1.64
			c1.03,0.19,2.02,0.28,3.05,0.33v22.67c-1.31,0.42-2.39,0.7-3.8,0.7c-7.13,0-10.93-6.05-10.93-12.62c0-4.46,1.6-7.98,5.02-10.75
			l-0.56-0.47c-4.69,3.57-7.93,8.12-7.93,14.22c0,7.23,5.02,12.62,12.34,12.62c5.12,0,9.48-3.14,11.54-7.79l-0.56-0.47
			C119.53,26.92,118.4,28.61,116.43,29.36z M72.32,39.12c-1.64,0-2.3-1.36-2.3-2.68c0-3.85,4.6-7.27,8.21-7.27
			c1.03,0,2.16,0.14,3.19,0.52C80.25,32.6,76.26,39.12,72.32,39.12z M94.47,22.89c0,2.96-1.64,5.26-3.99,6.9
			c-2.44-1.6-3.9-2.53-6.71-2.96l2.21-5.16c1.41,0.47,5.44,1.55,5.44,3.24c0,0.52-0.23,0.99-0.47,1.41l0.56,0.28
			c0.7-1.17,1.27-2.21,1.27-3.57c0-2.63-3.14-3.9-5.35-4.51l0.94-2.02C91.61,17.39,94.47,19.27,94.47,22.89z"/>
	</g>
	<g>
		<path d="M74.94,25.08c-1.28,0-2.32-1.04-2.32-2.32c0-1.28,1.04-2.32,2.32-2.32c1.28,0,2.32,1.04,2.32,2.32
			C77.26,24.04,76.22,25.08,74.94,25.08z M74.94,20.66c-1.16,0-2.1,0.94-2.1,2.1c0,1.16,0.94,2.1,2.1,2.1s2.1-0.94,2.1-2.1
			C77.05,21.6,76.1,20.66,74.94,20.66z"/>
		<g>
			<path d="M75.87,23.77H75.4l-0.46-1.38l-0.45,1.38h-0.47l-0.5-1.89h0.46l0.28,1.29l0.43-1.29h0.49l0.43,1.29l0.29-1.29h0.45
				L75.87,23.77z"/>
		</g>
	</g>
</g>
</svg>
